# xmcd CD database file
#
# Track frame offsets:
#	150
#	15845
#	34484
#	48832
#	67509
#	78400
#	97649
#	119012
#	124378
#	146211
#	158969
#	181049
#	196603
#
# Disc length: 2755 seconds
#
# Revision: 0
# Processed by: cddbd v1.5.2PL0 Copyright (c) Steve Scherf et al.
# Submitted via: CDex 1.70beta2
#
DISCID=9d0ac10d
DTITLE=Bergitta Victor - so happy
DYEAR=1900
DGENRE=Jazz
TTITLE0=Say Love
TTITLE1=I feel
TTITLE2=So happy
TTITLE3=Would you
TTITLE4=Farewell
TTITLE5=Why should I cry
TTITLE6=Rising high (i feel part 2)
TTITLE7=For today
TTITLE8=Alright
TTITLE9=Trouble
TTITLE10=Struggling
TTITLE11=Almighty
TTITLE12=I know who I am (falling)
EXTD=
EXTT0=
EXTT1=
EXTT2=
EXTT3=
EXTT4=
EXTT5=
EXTT6=
EXTT7=
EXTT8=
EXTT9=
EXTT10=
EXTT11=
EXTT12=
PLAYORDER=
